# AST/ASF file generated using VICON BodyLanguage
# -----------------------------------------------
:version 1.10
:name VICON
:units
  mass 1.0
  length 0.45
  angle deg
:documentation
   .ast/.asf automatically generated from VICON data using
   VICON BodyBuilder and BodyLanguage model FoxedUp or BRILLIANT.MOD
:root
   order TX TY TZ RX RY RZ
   axis XYZ
   position 0 0 0  
   orientation 0 0 0 
:bonedata
  begin
     id 1 
     name lhipjoint
     direction 0.576517 -0.752066 0.319413 
     length 2.45433 
     axis 0 0 0  XYZ
  end
  begin
     id 2 
     name lfemur
     direction 0.34202 -0.939693 0  
     length 7.54459  
     axis 0 0 20  XYZ
    dof rx ry rz
    limits (-160.0 20.0)
           (-70.0 70.0)
           (-60.0 70.0)
  end
  begin
     id 3 
     name ltibia
     direction 0.34202 -0.939693 0   
     length 7.73986   
     axis 0 0 20   XYZ
    dof rx
    limits (-10.0 170.0)
  end
  begin
     id 4 
     name lfoot
     direction 0.090693 -0.249177 0.964202   
     length 2.28437   
     axis -90 7.62852e-016 20   XYZ
    dof rx rz
    limits (-45.0 90.0)
           (-70.0 20.0)
  end
  begin
     id 5 
     name ltoes
     direction 1.5356e-011 -4.21928e-011 1   
     length 1.14243   
     axis -90 7.62852e-016 20   XYZ
    dof rx
    limits (-90.0 20.0)
  end
  begin
     id 6 
     name rhipjoint
     direction -0.573937 -0.753736 0.320122   
     length 2.44889  
     axis 0 0 0  XYZ 
  end
  begin
     id 7 
     name rfemur
     direction -0.34202 -0.939693 0   
     length 7.50166   
     axis 0 0 -20   XYZ
    dof rx ry rz
    limits (-160.0 20.0)
           (-70.0 70.0)
           (-70.0 60.0)
  end
  begin
     id 8 
     name rtibia
     direction -0.34202 -0.939693 0   
     length 7.54266   
     axis 0 0 -20   XYZ
    dof rx
    limits (-10.0 170.0)
 end
 begin
     id 9 
     name rfoot
     direction -0.114017 -0.31326 0.942798   
     length 2.34212  
     axis -90 -7.62852e-016 -20   XYZ
    dof rx rz
    limits (-45.0 90.0)
           (-20.0 70.0)
  end
  begin
     id 10 
     name rtoes
     direction -1.53557e-011 -4.21867e-011 1   
     length 1.16246   
     axis -90 -7.62852e-016 -20   XYZ
    dof rx
    limits (-90.0 20.0)
  end
  begin
     id 11 
     name lowerback
     direction -0.0228371 0.999155 -0.034167   
     length 2.0537   
     axis 0 0 0   XYZ
    dof rx ry rz
    limits (-20.0 45.0)
           (-30.0 30.0)
           (-30.0 30.0)
  end
  begin
     id 12 
     name upperback
     direction 0.0198981 0.999794 0.00389455   
     length 2.05302   
     axis 0 0 0   XYZ
    dof rx ry rz
    limits (-20.0 45.0)
           (-30.0 30.0)
           (-30.0 30.0)
  end
  begin
     id 13 
     name thorax
     direction 0.0304566 0.99935 0.0192987   
     length 2.05315   
     axis 0 0 0   XYZ
    dof rx ry rz
    limits (-20.0 45.0)
           (-30.0 30.0)
           (-30.0 30.0)
  end
  begin
     id 14 
     name lowerneck
     direction -0.0196762 0.99417 0.106017   
     length 1.82056   
     axis 0 0 0   XYZ
    dof rx ry rz
    limits (-20.0 45.0)
           (-30.0 30.0)
           (-30.0 30.0)
  end
  begin
     id 15 
     name upperneck
     direction 0.00517787 0.9802 -0.197944   
     length 1.83835   
     axis 0 0 0   XYZ
    dof rx ry rz
    limits (-20.0 45.0)
           (-30.0 30.0)
           (-30.0 30.0)
  end
  begin
     id 16
     name head
     direction 0.00211419 0.996945 -0.078081  
     length 1.85629  
     axis 0 0 0   XYZ
    dof rx ry rz
    limits (-20.0 45.0)
           (-30.0 30.0)
           (-30.0 30.0)
  end
  begin
     id 17 
     name lclavicle
     direction 0.930001 0.365811 -0.0357824  
     length 3.81961  
     axis 0 0 0   XYZ
    dof ry rz
    limits (-20.0 10.0)
           (0.0 20.0)
  end
  begin
     id 18 
     name lhumerus
     direction 1 -4.48968e-011 -3.06644e-027   
     length 5.14507   
     axis 180 -30 -90   XYZ
    dof rx ry rz
    limits (-60.0 90.0)
           (-90.0 90.0)
           (-90.0 90.0)
  end
  begin
     id 19
     name lradius
     direction 1 -4.48965e-011 9.06925e-028   
     length 3.50646   
     axis 180 -30 -90   XYZ
    dof rx
    limits (-10.0 170.0)
  end
  begin
     id 20
     name lwrist
     direction 1 -4.48957e-011 1.03922e-027   
     length 1.75323   
     axis -2.56395e-016 90 90   XYZ
    dof ry
    limits (-180.0 0.0)
 end
  begin
     id 21 
     name lhand
     direction 1 -4.48967e-011 2.08017e-027   
     length 0.629969   
     axis -1.32723e-015 90 90   XYZ
    dof rx rz
    limits (-90.0 90.0)
           (-45.0 45.0)
  end
  begin
     id 22 
     name lfingers
     direction 1 -4.49089e-011 4.20095e-027   
     length 0.507897   
     axis -2.6545e-015 90 90   XYZ
    dof rx
    limits (0.0 90.0)
  end
  begin
     id 23
     name lthumb
     direction 0.707107 -6.35001e-011 0.707107   
     length 0.729241   
     axis -90 45 5.05613e-014   XYZ
    dof rx rz
    limits (-45.0 45.0)
           (-45.0 45.0)
  end
  begin
     id 24 
     name rclavicle
     direction -0.881882 0.464123 -0.0829113   
     length 3.47515  
     axis 0 0 0   XYZ 
    dof ry rz
    limits (-10.0 20.0)
           (-20.0 0.0)
  end
  begin
     id 25 
     name rhumerus
     direction -1 -4.48961e-011 -1.55672e-027  
     length 5.232   
     axis 180 30 90   XYZ
    dof rx ry rz
    limits (-90.0 60.0)
           (-90.0 90.0)
           (-90.0 90.0)
  end
  begin
     id 26 
     name rradius
     direction -1 -4.48963e-011 6.18178e-029   
     length 3.65641   
     axis 180 30 90   XYZ
    dof rx
    limits (-10.0 170.0)
  end
  begin
     id 27 
     name rwrist
     direction -1 -4.48982e-011 1.04136e-027   
     length 1.8282   
     axis -2.56395e-016 -90 -90   XYZ
    dof ry
    limits (-180.0 0.0)
  end
  begin
     id 28
     name rhand
     direction -1 -4.48929e-011 2.07378e-027   
     length 0.656807   
     axis -1.32723e-015 -90 -90   XYZ
    dof rx rz
    limits (-90.0 90.0)
           (-45.0 45.0)
  end
  begin
     id 29
     name rfingers
     direction -1 -4.489e-011 4.13816e-027   
     length 0.529535   
     axis -2.6545e-015 -90 -90   XYZ
    dof rx
    limits (0.0 90.0)
  end
  begin
     id 30
     name rthumb
     direction -0.707107 -6.34843e-011 0.707107   
     length 0.760309   
     axis -90 -45 -5.05613e-014   XYZ
    dof rx rz
    limits (-45.0 45.0)
           (-45.0 45.0)
  end
:hierarchy
  begin
    root lhipjoint rhipjoint lowerback
    lhipjoint lfemur
    lfemur ltibia
    ltibia lfoot
    lfoot ltoes
    rhipjoint rfemur
    rfemur rtibia
    rtibia rfoot
    rfoot rtoes
    lowerback upperback
    upperback thorax
    thorax lowerneck lclavicle rclavicle
    lowerneck upperneck
    upperneck head
    lclavicle lhumerus
    lhumerus lradius
    lradius lwrist
    lwrist lhand lthumb
    lhand lfingers
    rclavicle rhumerus
    rhumerus rradius
    rradius rwrist
    rwrist rhand rthumb
    rhand rfingers
  end

#!OML:ASF H:\ManfredETheater\Project 1\Capture day 1\Session 1\subject.ASF
:FULLY-SPECIFIED
:DEGREES
1
root -9.15174 17.18 39.4626 -172.243 15.7206 179.794
lowerback 4.58987 1.13346 -0.206442
upperback -1.65478 1.71989 3.14221
thorax -4.39178 0.94515 3.22497
lowerneck -13.7112 2.71869 2.70824
upperneck 14.5187 4.03568 -4.34902
head 6.83408 1.77944 -1.43922
rclavicle -3.80673e-014 -3.18055e-015
rhumerus -32.1982 -8.50305 -76.5661
rradius 36.976
rwrist 3.06778
rhand -18.1811 -11.53
rfingers 7.12502
rthumb 8.09553 -41.355
lclavicle -3.80673e-014 -3.18055e-015
lhumerus -30.9207 3.63779 87.9405
lradius 31.6768
lwrist -9.36264
lhand -7.25944 1.30252
lfingers 7.12502
lthumb 18.6213 30.4312
rfemur -13.209 -4.20765 25.276
rtibia 29.3513
rfoot -18.8165 -21.9972
rtoes -13.813
lfemur -31.3192 -2.84657 -12.3743
ltibia 40.7762
lfoot -14.6641 -2.80795
ltoes 8.43639
2
root -9.14561 17.1784 39.471 -172.258 15.5543 179.769
lowerback 4.56447 1.07399 -0.215224
upperback -1.65427 1.63841 3.13396
thorax -4.37195 0.904343 3.22872
lowerneck -13.4455 2.75094 2.39799
upperneck 14.2589 4.07215 -4.00721
head 6.69222 1.81269 -1.27852
rclavicle -1.00386e-014 -4.77083e-015
rhumerus -32.0794 -8.44044 -76.6433
rradius 37.0088
rwrist 3.01228
rhand -18.2247 -11.3444
rfingers 7.12502
rthumb 8.05351 -41.171
lclavicle -1.00386e-014 -4.77083e-015
lhumerus -30.9008 3.70481 87.8858
lradius 31.6906
lwrist -9.34494
lhand -7.21239 1.41612
lfingers 7.12502
lthumb 18.6665 30.5405
rfemur -13.2263 -4.21145 25.3109
rtibia 29.3805
rfoot -18.8672 -22.1493
rtoes -13.671
lfemur -31.3692 -2.81544 -12.3784
ltibia 40.7635
lfoot -14.6287 -3.0069
ltoes 8.43019
3
root -9.14349 17.1776 39.4681 -172.276 15.5665 179.774
lowerback 4.63196 1.05179 -0.25884
upperback -1.80368 1.62008 3.21064
thorax -4.56865 0.902821 3.33331
lowerneck -13.7215 2.54462 2.55345
upperneck 14.7782 3.88115 -4.48264
head 6.91367 1.6888 -1.47179
rclavicle 3.27995e-015 -5.56597e-015
rhumerus -32.269 -8.13189 -76.5839
rradius 37.0959
rwrist 2.84822
rhand -18.2039 -11.2716
rfingers 7.12502
rthumb 8.07358 -41.0974
lclavicle 3.27995e-015 -5.56597e-015
lhumerus -31.2365 3.90656 87.9301
lradius 31.7285
lwrist -9.33493
lhand -7.20876 1.37129
lfingers 7.12502
lthumb 18.67 30.4953
rfemur -13.1958 -4.24665 25.3107
rtibia 29.3827
rfoot -18.8859 -22.0556
rtoes -13.7432
lfemur -31.3371 -2.85908 -12.3613
ltibia 40.7633
lfoot -14.6386 -2.97383
ltoes 8.44889
4
root -9.13893 17.1774 39.4702 -172.304 15.4953 179.74
lowerback 4.66511 1.04127 -0.299777
upperback -1.84148 1.60594 3.22005
thorax -4.6275 0.898196 3.36692
lowerneck -12.8249 2.81196 1.91282
upperneck 14.0217 4.20448 -3.68479
head 6.49652 1.89081 -1.0912
rclavicle -4.07509e-015 -3.33958e-014
rhumerus -32.2746 -8.07312 -76.5887
rradius 37.1863
rwrist 2.79981
rhand -18.1873 -11.1669
rfingers 7.12502
rthumb 8.08959 -40.9921
lclavicle -4.07509e-015 -3.33958e-014
lhumerus -31.2655 3.98309 87.9408
lradius 31.6831
lwrist -9.39887
lhand -7.22147 1.39297
lfingers 7.12502
lthumb 18.6578 30.5182
rfemur -13.175 -4.3042 25.2962
rtibia 29.3912
rfoot -18.8963 -22.0723
rtoes -13.7878
lfemur -31.3334 -2.87359 -12.3823
ltibia 40.7606
lfoot -14.632 -3.0435
ltoes 8.45111
5
root -9.13181 17.176 39.4745 -172.302 15.4128 179.759
lowerback 4.53411 1.04291 -0.202132
upperback -1.74821 1.60343 3.15518
thorax -4.45079 0.88944 3.24651
lowerneck -13.6012 2.72169 2.49362
upperneck 14.5018 4.07608 -4.26995
head 6.80514 1.79728 -1.37557
rclavicle 2.77305e-014 -3.33958e-014
rhumerus -32.0879 -8.16994 -76.7616
rradius 37.2416
rwrist 2.77176
rhand -18.2052 -11.2588
rfingers 7.12502
rthumb 8.07226 -41.0846
lclavicle 2.77305e-014 -3.33958e-014
lhumerus -31.068 3.88261 87.886
lradius 31.6555
lwrist -9.389
lhand -7.18728 1.42299
lfingers 7.12502
lthumb 18.6907 30.5451
rfemur -13.1683 -4.27662 25.3552
rtibia 29.387
rfoot -18.9545 -22.126
rtoes -13.5241
lfemur -31.3658 -2.87149 -12.3316
ltibia 40.7671
lfoot -14.6152 -3.13502
ltoes 8.44831
6
root -9.12614 17.1749 39.4772 -172.315 15.3489 179.765
lowerback 4.50203 1.03212 -0.173971
upperback -1.74386 1.58949 3.1452
thorax -4.4261 0.881254 3.22188
lowerneck -13.6218 2.73176 2.47693
upperneck 14.4861 4.08895 -4.25741
head 6.80353 1.80306 -1.36733
rclavicle -3.97569e-015 -7.95139e-016
rhumerus -32.0358 -8.12253 -76.8451
rradius 37.3085
rwrist 2.70946
rhand -18.2287 -11.2768
rfingers 7.12502
rthumb 8.04961 -41.1035
lclavicle -3.97569e-015 -7.95139e-016
lhumerus -31.0493 3.89996 87.8702
lradius 31.6382
lwrist -9.39936
lhand -7.19317 1.43328
lfingers 7.12502
lthumb 18.685 30.5559
rfemur -13.1513 -4.28509 25.3903
rtibia 29.3896
rfoot -18.9845 -22.1542
rtoes -13.4408
lfemur -31.3742 -2.87981 -12.3023
ltibia 40.7725
lfoot -14.6063 -3.19869
ltoes 8.4473
7
root -9.12025 17.1736 39.4802 -172.328 15.2822 179.776
lowerback 4.47869 1.02355 -0.14233
upperback -1.73702 1.57876 3.13501
thorax -4.40389 0.874555 3.19466
lowerneck -13.6488 2.74151 2.44854
upperneck 14.463 4.09996 -4.22886
head 6.79996 1.80841 -1.35218
rclavicle 2.34566e-014 6.52014e-014
rhumerus -31.9856 -8.08019 -76.9351
rradius 37.3743
rwrist 2.65348
rhand -18.2584 -11.3153
rfingers 7.12502
rthumb 8.02096 -41.1431
lclavicle 2.34566e-014 6.52014e-014
lhumerus -31.0205 3.9044 87.8603
lradius 31.6169
lwrist -9.4109
lhand -7.20758 1.43242
lfingers 7.12502
lthumb 18.6712 30.5563
rfemur -13.1324 -4.29589 25.4317
rtibia 29.3883
rfoot -19.0118 -22.1832
rtoes -13.3529
lfemur -31.3859 -2.89253 -12.267
ltibia 40.7833
lfoot -14.5988 -3.25786
ltoes 8.44215
8
root -9.1142 17.1723 39.4832 -172.343 15.2152 179.786
lowerback 4.46257 1.01771 -0.110416
upperback -1.72583 1.57141 3.12258
thorax -4.38138 0.869376 3.16459
lowerneck -13.65 2.75749 2.38489
upperneck 14.4032 4.11624 -4.15363
head 6.77852 1.81856 -1.31613
rclavicle -1.90833e-014 -5.64548e-014
rhumerus -31.9357 -8.04597 -77.0313
rradius 37.4363
rwrist 2.60644
rhand -18.2911 -11.3463
rfingers 7.12502
rthumb 7.98942 -41.1753
lclavicle -1.90833e-014 -5.64548e-014
lhumerus -30.981 3.89525 87.8551
lradius 31.5943
lwrist -9.42054
lhand -7.2128 1.43214
lfingers 7.12502
lthumb 18.6661 30.5566
rfemur -13.1107 -4.30978 25.4733
rtibia 29.3863
rfoot -19.0386 -22.2134
rtoes -13.2611
lfemur -31.3946 -2.91275 -12.2311
ltibia 40.7949
lfoot -14.592 -3.30767
ltoes 8.43651
9
root -9.10815 17.171 39.4858 -172.362 15.1523 179.796
lowerback 4.46098 1.01171 -0.0853266
upperback -1.72207 1.56441 3.11592
thorax -4.37526 0.864957 3.1441
lowerneck -13.6562 2.76297 2.31434
upperneck 14.3596 4.1226 -4.08703
head 6.76287 1.82293 -1.28264
rclavicle -1.80894e-014 -3.73715e-014
rhumerus -31.9067 -7.99505 -77.124
rradius 37.4944
rwrist 2.56397
rhand -18.3218 -11.3576
rfingers 7.12502
rthumb 7.95972 -41.1877
lclavicle -1.80894e-014 -3.73715e-014
lhumerus -30.9598 3.89327 87.8586
lradius 31.5744
lwrist -9.42948
lhand -7.20849 1.42533
lfingers 7.12502
lthumb 18.6703 30.5493
rfemur -13.085 -4.32852 25.5132
rtibia 29.3844
rfoot -19.0615 -22.2394
rtoes -13.1873
lfemur -31.3973 -2.9437 -12.1953
ltibia 40.8073
lfoot -14.5873 -3.34031
ltoes 8.42692
10
root -9.10217 17.1697 39.488 -172.387 15.0951 179.797
lowerback 4.47405 1.00409 -0.0750384
upperback -1.72905 1.55544 3.11571
thorax -4.38913 0.860419 3.13861
lowerneck -13.6075 2.77332 2.20368
upperneck 14.2894 4.13871 -3.98998
head 6.728 1.83355 -1.23257
rclavicle -9.93923e-016 -6.83819e-014
rhumerus -31.9048 -7.9233 -77.2082
rradius 37.5461
rwrist 2.53044
rhand -18.343 -11.3361
rfingers 7.12502
rthumb 7.93931 -41.167
lclavicle -9.93923e-016 -6.83819e-014
lhumerus -30.9653 3.90908 87.8708
lradius 31.5566
lwrist -9.44439
lhand -7.20231 1.41351
lfingers 7.12502
lthumb 18.6762 30.537
rfemur -13.0546 -4.35305 25.5425
rtibia 29.3834
rfoot -19.0824 -22.259
rtoes -13.1339
lfemur -31.3912 -2.98533 -12.1685
ltibia 40.819
lfoot -14.5855 -3.35472
ltoes 8.41467
11
root -9.09625 17.1684 39.4895 -172.417 15.0468 179.793
lowerback 4.49493 0.995981 -0.0765503
upperback -1.74245 1.54578 3.12
thorax -4.41457 0.85614 3.1444
lowerneck -13.5506 2.78381 2.09702
upperneck 14.228 4.15826 -3.90904
head 6.69513 1.84506 -1.1881
rclavicle 3.77691e-014 6.2816e-014
rhumerus -31.924 -7.83551 -77.2867
rradius 37.5921
rwrist 2.51094
rhand -18.3465 -11.2949
rfingers 7.12502
rthumb 7.93591 -41.126
lclavicle 3.77691e-014 6.2816e-014
lhumerus -30.9921 3.93813 87.8899
lradius 31.5424
lwrist -9.46123
lhand -7.18623 1.40297
lfingers 7.12502
lthumb 18.6917 30.5249
rfemur -13.0191 -4.38048 25.5617
rtibia 29.3831
rfoot -19.103 -22.2701
rtoes -13.0886
lfemur -31.3755 -3.03597 -12.1494
ltibia 40.8295
lfoot -14.5868 -3.34976
ltoes 8.39999
12
root -9.0902 17.1672 39.4907 -172.45 15.005 179.782
lowerback 4.517 0.988651 -0.086813
upperback -1.75715 1.53667 3.12511
thorax -4.44232 0.85241 3.15593
lowerneck -13.5114 2.79248 2.01349
upperneck 14.1883 4.17711 -3.8586
head 6.67337 1.85473 -1.15702
rclavicle -3.69739e-014 -7.15625e-015
rhumerus -31.9533 -7.75024 -77.362
rradius 37.629
rwrist 2.51586
rhand -18.3285 -11.2357
rfingers 7.12502
rthumb 7.95328 -41.0661
lclavicle -3.69739e-014 -7.15625e-015
lhumerus -31.0277 3.97206 87.9132
lradius 31.5323
lwrist -9.47915
lhand -7.16289 1.39631
lfingers 7.12502
lthumb 18.7142 30.5161
rfemur -12.9827 -4.40622 25.5737
rtibia 29.3846
rfoot -19.1206 -22.28
rtoes -13.0644
lfemur -31.3541 -3.09021 -12.1369
ltibia 40.8387
lfoot -14.5907 -3.33289
ltoes 8.38141
13
root -9.0839 17.1659 39.4915 -172.485 14.97 179.768
lowerback 4.52772 0.980205 -0.0990553
upperback -1.76736 1.52546 3.12932
thorax -4.45885 0.84753 3.16801
lowerneck -13.4813 2.80055 1.95277
upperneck 14.1601 4.19608 -3.83617
head 6.65799 1.86329 -1.13849
rclavicle -9.24349e-015 -5.32743e-014
rhumerus -31.9838 -7.66462 -77.4416
rradius 37.6555
rwrist 2.54055
rhand -18.2908 -11.1692
rfingers 7.12502
rthumb 7.9897 -40.9982
lclavicle -9.24349e-015 -5.32743e-014
lhumerus -31.0649 4.01212 87.9354
lradius 31.5253
lwrist -9.49305
lhand -7.13536 1.39233
lfingers 7.12502
lthumb 18.7406 30.5096
rfemur -12.9445 -4.42613 25.5817
rtibia 29.3875
rfoot -19.1377 -22.2906
rtoes -13.0481
lfemur -31.3278 -3.14285 -12.1279
ltibia 40.8471
lfoot -14.5966 -3.30999
ltoes 8.36619
